<?xml version="1.0" encoding="UTF-8" standalone="no"?>
<!DOCTYPE svg PUBLIC "-//W3C//DTD SVG 1.1//EN" "http://www.w3.org/Graphics/SVG/1.1/DTD/svg11.dtd">
<svg xmlns="http://www.w3.org/2000/svg" version="1.1" viewBox="0.00 0.00 590.00 85.00">
<g stroke-width="1.20" fill="none" stroke-linecap="butt">
<path stroke="#9ba7b8" vector-effect="non-scaling-stroke" d="
  M 258.66 0.00
  L 248.60 0.11
  A 0.74 0.74 0.0 0 0 247.87 0.85
  L 247.87 11.60
  A 0.55 0.55 0.0 0 0 248.42 12.15
  L 259.08 12.15
  A 0.47 0.47 0.0 0 0 259.55 11.66
  L 259.13 0.00"
/>
<path stroke="#9ba7b8" vector-effect="non-scaling-stroke" d="
  M 590.00 18.29
  L 546.90 18.18
  A 0.33 0.33 0.0 0 0 546.57 18.51
  L 546.61 85.00"
/>
<path stroke="#9ba7b8" vector-effect="non-scaling-stroke" d="
  M 480.52 85.00
  L 480.56 18.85
  A 0.66 0.66 0.0 0 0 479.90 18.19
  L 456.36 18.19
  A 0.73 0.73 0.0 0 0 455.67 18.68
  L 440.48 61.88
  A 0.41 0.41 0.0 0 1 439.70 61.88
  L 424.47 18.79
  A 0.90 0.89 80.3 0 0 423.63 18.19
  L 400.29 18.19
  A 0.57 0.56 -90.0 0 0 399.73 18.76
  L 399.72 85.00"
/>
<path stroke="#9ba7b8" vector-effect="non-scaling-stroke" d="
  M 306.30 85.00
  L 318.66 84.69
  A 0.52 0.51 89.4 0 0 319.16 84.17
  L 319.16 35.94
  A 0.22 0.22 0.0 0 1 319.58 35.87
  L 336.72 84.37
  A 0.68 0.67 80.1 0 0 337.35 84.82
  L 351.82 84.82
  A 1.02 1.02 0.0 0 0 352.78 84.14
  L 369.71 35.99
  A 0.24 0.24 0.0 0 1 370.15 35.97
  Q 370.29 36.28 370.29 36.50
  Q 370.31 40.37 370.27 84.44
  A 0.38 0.37 0.7 0 0 370.65 84.82
  L 385.76 84.82
  A 0.59 0.58 -0.0 0 0 386.35 84.24
  L 386.35 18.78
  A 0.59 0.58 -0.0 0 0 385.76 18.20
  L 362.14 18.20
  A 0.64 0.63 9.7 0 0 361.54 18.62
  L 346.35 61.84
  A 0.45 0.45 0.0 0 1 345.50 61.84
  L 330.27 18.75
  A 0.84 0.82 -9.2 0 0 329.48 18.20
  L 306.04 18.20
  A 0.55 0.54 -0.0 0 0 305.49 18.74
  L 305.50 85.00"
/>
<path stroke="#9ba7b8" vector-effect="non-scaling-stroke" d="
  M 297.99 85.00
  L 298.00 84.56
  A 1.69 1.69 0.0 0 0 297.89 83.96
  L 273.88 18.76
  A 0.88 0.88 0.0 0 0 273.05 18.18
  L 255.98 18.18
  A 0.60 0.59 9.7 0 0 255.42 18.57
  L 231.26 84.22
  A 0.45 0.44 -79.8 0 0 231.67 84.82
  L 244.92 84.82
  A 0.76 0.75 -80.1 0 0 245.63 84.32
  L 250.13 72.09
  A 0.74 0.71 9.5 0 1 250.82 71.62
  L 276.37 71.62
  A 0.87 0.87 0.0 0 1 277.16 72.13
  L 282.88 85.00"
/>
<path stroke="#9ba7b8" vector-effect="non-scaling-stroke" d="
  M 224.45 85.00
  L 224.53 73.19
  A 0.57 0.56 90.0 0 0 223.97 72.62
  L 195.88 72.62
  A 0.68 0.68 0.0 0 1 195.20 71.94
  L 195.20 18.88
  A 0.67 0.66 90.0 0 0 194.54 18.21
  L 180.30 18.21
  A 0.41 0.41 0.0 0 0 179.89 18.62
  L 179.89 84.29
  A 0.52 0.52 0.0 0 0 180.41 84.81
  L 223.83 85.00"
/>
<path stroke="#9ba7b8" vector-effect="non-scaling-stroke" d="
  M 0.00 84.80
  L 135.78 84.77
  A 0.31 0.31 0.0 0 0 136.09 84.46
  L 136.09 0.60
  A 0.41 0.41 0.0 0 0 135.68 0.19
  L 0.00 0.20"
/>
<path stroke="#9ba7b8" vector-effect="non-scaling-stroke" d="
  M 279.7492 0.9204
  A 0.68 0.68 0.0 0 0 279.0703 0.2392
  L 268.5704 0.2208
  A 0.68 0.68 0.0 0 0 267.8892 0.8997
  L 267.8708 11.3996
  A 0.68 0.68 0.0 0 0 268.5497 12.0808
  L 279.0496 12.0992
  A 0.68 0.68 0.0 0 0 279.7308 11.4203
  L 279.7492 0.9204"
/>
<path stroke="#9ba7b8" vector-effect="non-scaling-stroke" d="
  M 494.70 18.20
  A 0.51 0.51 0.0 0 0 494.19 18.71
  L 494.19 84.30
  A 0.51 0.51 0.0 0 0 494.70 84.81
  L 538.44 84.81
  A 0.51 0.51 0.0 0 0 538.95 84.30
  L 538.95 73.12
  A 0.51 0.51 0.0 0 0 538.44 72.61
  L 509.99 72.61
  A 0.51 0.51 0.0 0 1 509.48 72.10
  L 509.48 18.71
  A 0.51 0.51 0.0 0 0 508.97 18.20
  L 494.70 18.20"
/>
<path stroke="#9ba7b8" vector-effect="non-scaling-stroke" d="
  M 60.69 77.73
  L 86.75 77.73
  A 1.07 1.05 -69.6 0 0 87.56 77.35
  Q 107.36 54.13 113.86 24.89
  A 0.26 0.25 -80.1 0 1 114.14 24.69
  L 120.80 25.46
  A 0.29 0.29 0.0 0 1 121.05 25.81
  Q 114.83 54.17 97.25 76.87
  A 0.28 0.28 0.0 0 0 97.48 77.32
  L 128.81 77.32
  A 0.33 0.32 0.0 0 0 129.14 77.00
  L 129.14 7.03
  A 0.51 0.51 0.0 0 0 128.63 6.52
  L 124.87 6.52
  A 0.56 0.55 -86.5 0 0 124.32 7.01
  L 123.20 16.66
  A 0.46 0.45 -82.5 0 1 122.69 17.06
  L 116.58 16.35
  A 0.73 0.73 0.0 0 1 115.93 15.54
  L 116.85 7.66
  A 0.64 0.63 -86.8 0 0 116.22 6.95
  L 97.79 6.95
  A 0.42 0.41 2.2 0 0 97.37 7.33
  Q 94.89 36.39 76.90 59.87
  A 0.23 0.22 38.9 0 1 76.58 59.90
  L 71.43 55.48
  A 0.32 0.32 0.0 0 1 71.39 55.04
  Q 87.60 34.08 90.03 7.65
  A 0.68 0.68 0.0 0 0 89.35 6.91
  L 71.18 6.91
  A 0.38 0.37 2.5 0 0 70.80 7.25
  C 69.90 15.67 67.50 24.50 63.39 31.92
  A 0.64 0.64 0.0 0 1 62.51 32.16
  L 57.23 29.12
  A 0.61 0.60 28.6 0 1 56.99 28.32
  Q 61.73 18.75 63.16 7.78
  A 0.49 0.49 0.0 0 0 62.67 7.23
  L 44.33 7.23
  A 0.92 0.91 3.2 0 0 43.42 8.04
  L 43.02 11.50
  A 0.62 0.62 0.0 0 1 42.20 12.01
  L 35.95 9.82
  A 0.54 0.54 0.0 0 1 35.60 9.25
  L 35.72 8.22
  A 0.49 0.48 -86.8 0 0 35.24 7.68
  L 5.58 7.68
  A 0.41 0.41 0.0 0 0 5.17 8.09
  L 5.17 37.59
  A 0.44 0.44 0.0 0 0 5.70 38.02
  Q 12.72 36.49 19.38 32.22
  A 0.27 0.26 53.1 0 1 19.72 32.27
  L 24.32 37.31
  A 0.30 0.29 -39.4 0 1 24.27 37.75
  Q 15.79 44.05 5.54 45.45
  A 0.44 0.43 -4.7 0 0 5.17 45.88
  L 5.17 64.30
  A 0.55 0.55 0.0 0 0 5.76 64.85
  Q 10.97 64.46 16.83 62.58
  Q 38.86 55.52 52.22 36.29
  A 0.26 0.25 31.4 0 1 52.56 36.21
  L 58.60 39.70
  A 0.24 0.23 32.7 0 1 58.68 40.03
  Q 39.34 67.94 5.38 72.59
  A 0.25 0.25 0.0 0 0 5.16 72.84
  L 5.16 77.45
  A 0.29 0.28 0.0 0 0 5.45 77.73
  L 46.54 77.73
  A 2.64 2.61 -60.7 0 0 47.93 77.33
  Q 57.78 71.15 65.51 62.61
  A 0.77 0.76 41.7 0 1 66.57 62.55
  L 71.06 66.40
  A 0.86 0.86 0.0 0 1 71.08 67.69
  L 60.53 77.31
  A 0.24 0.24 0.0 0 0 60.69 77.73"
/>
<path stroke="#9ba7b8" vector-effect="non-scaling-stroke" d="
  M 29.38 22.23
  Q 27.69 24.63 25.74 26.98
  A 0.72 0.72 0.0 0 0 25.76 27.93
  L 30.07 32.65
  A 0.25 0.24 -43.3 0 0 30.43 32.66
  Q 33.24 29.81 35.53 26.57
  Q 37.81 23.33 39.55 19.73
  A 0.25 0.24 -66.3 0 0 39.42 19.39
  L 33.53 16.91
  A 0.72 0.72 0.0 0 0 32.63 17.21
  Q 31.07 19.83 29.38 22.23"
/>
<path stroke="#9ba7b8" vector-effect="non-scaling-stroke" d="
  M 297.35 85.00
  L 283.59 85.00"
/>
<path stroke="#9ba7b8" vector-effect="non-scaling-stroke" d="
  M 254.50 59.95
  A 0.34 0.34 0.0 0 0 254.82 60.40
  L 272.37 60.52
  A 0.34 0.34 0.0 0 0 272.70 60.07
  L 264.10 34.77
  A 0.34 0.34 0.0 0 0 263.46 34.77
  L 254.50 59.95"
/>
<path stroke="#9ba7b8" vector-effect="non-scaling-stroke" d="
  M 479.81 85.00
  L 465.53 84.87
  A 0.72 0.72 0.0 0 1 464.82 84.15
  L 464.82 36.51
  A 0.34 0.34 0.0 0 0 464.16 36.39
  L 447.31 84.31
  A 0.73 0.73 0.0 0 1 446.62 84.80
  L 432.50 85.00"
/>
<path stroke="#9ba7b8" vector-effect="non-scaling-stroke" d="
  M 431.63 85.00
  Q 422.86 60.79 414.33 36.14
  A 0.55 0.54 59.4 0 0 413.45 35.91
  C 413.08 36.25 413.29 61.43 413.31 84.35
  A 0.53 0.52 -0.6 0 1 412.79 84.87
  L 399.99 85.00"
/>
<path stroke="#9ba7b8" vector-effect="non-scaling-stroke" d="
  M 590.00 30.02
  L 561.95 30.06
  A 0.55 0.54 90.0 0 0 561.41 30.61
  L 561.41 43.94
  A 0.60 0.59 90.0 0 0 562.00 44.54
  L 590.00 44.51"
/>
<path stroke="#9ba7b8" vector-effect="non-scaling-stroke" d="
  M 590.00 56.31
  L 562.03 56.32
  A 0.60 0.59 0.0 0 0 561.43 56.91
  L 561.43 72.31
  A 0.59 0.59 0.0 0 0 562.02 72.90
  L 590.00 72.87"
/>
<path stroke="#9ba7b8" vector-effect="non-scaling-stroke" d="
  M 590.00 84.81
  L 547.60 84.83
  A 0.12 0.12 0.0 0 0 547.49 84.91
  Q 547.48 84.96 547.46 85.00"
/>
</g>
<path fill="#ffffff" d="
  M 258.66 0.00
  L 248.60 0.11
  A 0.74 0.74 0.0 0 0 247.87 0.85
  L 247.87 11.60
  A 0.55 0.55 0.0 0 0 248.42 12.15
  L 259.08 12.15
  A 0.47 0.47 0.0 0 0 259.55 11.66
  L 259.13 0.00
  L 590.00 0.00
  L 590.00 18.29
  L 546.90 18.18
  A 0.33 0.33 0.0 0 0 546.57 18.51
  L 546.61 85.00
  L 480.52 85.00
  L 480.56 18.85
  A 0.66 0.66 0.0 0 0 479.90 18.19
  L 456.36 18.19
  A 0.73 0.73 0.0 0 0 455.67 18.68
  L 440.48 61.88
  A 0.41 0.41 0.0 0 1 439.70 61.88
  L 424.47 18.79
  A 0.90 0.89 80.3 0 0 423.63 18.19
  L 400.29 18.19
  A 0.57 0.56 -90.0 0 0 399.73 18.76
  L 399.72 85.00
  L 306.30 85.00
  L 318.66 84.69
  A 0.52 0.51 89.4 0 0 319.16 84.17
  L 319.16 35.94
  A 0.22 0.22 0.0 0 1 319.58 35.87
  L 336.72 84.37
  A 0.68 0.67 80.1 0 0 337.35 84.82
  L 351.82 84.82
  A 1.02 1.02 0.0 0 0 352.78 84.14
  L 369.71 35.99
  A 0.24 0.24 0.0 0 1 370.15 35.97
  Q 370.29 36.28 370.29 36.50
  Q 370.31 40.37 370.27 84.44
  A 0.38 0.37 0.7 0 0 370.65 84.82
  L 385.76 84.82
  A 0.59 0.58 -0.0 0 0 386.35 84.24
  L 386.35 18.78
  A 0.59 0.58 -0.0 0 0 385.76 18.20
  L 362.14 18.20
  A 0.64 0.63 9.7 0 0 361.54 18.62
  L 346.35 61.84
  A 0.45 0.45 0.0 0 1 345.50 61.84
  L 330.27 18.75
  A 0.84 0.82 -9.2 0 0 329.48 18.20
  L 306.04 18.20
  A 0.55 0.54 -0.0 0 0 305.49 18.74
  L 305.50 85.00
  L 297.99 85.00
  L 298.00 84.56
  A 1.69 1.69 0.0 0 0 297.89 83.96
  L 273.88 18.76
  A 0.88 0.88 0.0 0 0 273.05 18.18
  L 255.98 18.18
  A 0.60 0.59 9.7 0 0 255.42 18.57
  L 231.26 84.22
  A 0.45 0.44 -79.8 0 0 231.67 84.82
  L 244.92 84.82
  A 0.76 0.75 -80.1 0 0 245.63 84.32
  L 250.13 72.09
  A 0.74 0.71 9.5 0 1 250.82 71.62
  L 276.37 71.62
  A 0.87 0.87 0.0 0 1 277.16 72.13
  L 282.88 85.00
  L 224.45 85.00
  L 224.53 73.19
  A 0.57 0.56 90.0 0 0 223.97 72.62
  L 195.88 72.62
  A 0.68 0.68 0.0 0 1 195.20 71.94
  L 195.20 18.88
  A 0.67 0.66 90.0 0 0 194.54 18.21
  L 180.30 18.21
  A 0.41 0.41 0.0 0 0 179.89 18.62
  L 179.89 84.29
  A 0.52 0.52 0.0 0 0 180.41 84.81
  L 223.83 85.00
  L 0.00 85.00
  Q 0.00 84.90 0.00 84.80
  L 135.78 84.77
  A 0.31 0.31 0.0 0 0 136.09 84.46
  L 136.09 0.60
  A 0.41 0.41 0.0 0 0 135.68 0.19
  L 0.00 0.20
  Q 0.00 0.10 0.00 0.00
  L 258.66 0.00
  Z
  M 279.7492 0.9204
  A 0.68 0.68 0.0 0 0 279.0703 0.2392
  L 268.5704 0.2208
  A 0.68 0.68 0.0 0 0 267.8892 0.8997
  L 267.8708 11.3996
  A 0.68 0.68 0.0 0 0 268.5497 12.0808
  L 279.0496 12.0992
  A 0.68 0.68 0.0 0 0 279.7308 11.4203
  L 279.7492 0.9204
  Z
  M 494.70 18.20
  A 0.51 0.51 0.0 0 0 494.19 18.71
  L 494.19 84.30
  A 0.51 0.51 0.0 0 0 494.70 84.81
  L 538.44 84.81
  A 0.51 0.51 0.0 0 0 538.95 84.30
  L 538.95 73.12
  A 0.51 0.51 0.0 0 0 538.44 72.61
  L 509.99 72.61
  A 0.51 0.51 0.0 0 1 509.48 72.10
  L 509.48 18.71
  A 0.51 0.51 0.0 0 0 508.97 18.20
  L 494.70 18.20
  Z"
/>
<path fill="#364f70" d="
  M 259.13 0.00
  L 259.55 11.66
  A 0.47 0.47 0.0 0 1 259.08 12.15
  L 248.42 12.15
  A 0.55 0.55 0.0 0 1 247.87 11.60
  L 247.87 0.85
  A 0.74 0.74 0.0 0 1 248.60 0.11
  L 258.66 0.00
  Q 258.89 0.00 259.13 0.00
  Z"
/>
<path fill="#364f70" d="
  M 0.00 84.80
  L 0.00 0.20
  L 135.68 0.19
  A 0.41 0.41 0.0 0 1 136.09 0.60
  L 136.09 84.46
  A 0.31 0.31 0.0 0 1 135.78 84.77
  L 0.00 84.80
  Z
  M 60.69 77.73
  L 86.75 77.73
  A 1.07 1.05 -69.6 0 0 87.56 77.35
  Q 107.36 54.13 113.86 24.89
  A 0.26 0.25 -80.1 0 1 114.14 24.69
  L 120.80 25.46
  A 0.29 0.29 0.0 0 1 121.05 25.81
  Q 114.83 54.17 97.25 76.87
  A 0.28 0.28 0.0 0 0 97.48 77.32
  L 128.81 77.32
  A 0.33 0.32 0.0 0 0 129.14 77.00
  L 129.14 7.03
  A 0.51 0.51 0.0 0 0 128.63 6.52
  L 124.87 6.52
  A 0.56 0.55 -86.5 0 0 124.32 7.01
  L 123.20 16.66
  A 0.46 0.45 -82.5 0 1 122.69 17.06
  L 116.58 16.35
  A 0.73 0.73 0.0 0 1 115.93 15.54
  L 116.85 7.66
  A 0.64 0.63 -86.8 0 0 116.22 6.95
  L 97.79 6.95
  A 0.42 0.41 2.2 0 0 97.37 7.33
  Q 94.89 36.39 76.90 59.87
  A 0.23 0.22 38.9 0 1 76.58 59.90
  L 71.43 55.48
  A 0.32 0.32 0.0 0 1 71.39 55.04
  Q 87.60 34.08 90.03 7.65
  A 0.68 0.68 0.0 0 0 89.35 6.91
  L 71.18 6.91
  A 0.38 0.37 2.5 0 0 70.80 7.25
  C 69.90 15.67 67.50 24.50 63.39 31.92
  A 0.64 0.64 0.0 0 1 62.51 32.16
  L 57.23 29.12
  A 0.61 0.60 28.6 0 1 56.99 28.32
  Q 61.73 18.75 63.16 7.78
  A 0.49 0.49 0.0 0 0 62.67 7.23
  L 44.33 7.23
  A 0.92 0.91 3.2 0 0 43.42 8.04
  L 43.02 11.50
  A 0.62 0.62 0.0 0 1 42.20 12.01
  L 35.95 9.82
  A 0.54 0.54 0.0 0 1 35.60 9.25
  L 35.72 8.22
  A 0.49 0.48 -86.8 0 0 35.24 7.68
  L 5.58 7.68
  A 0.41 0.41 0.0 0 0 5.17 8.09
  L 5.17 37.59
  A 0.44 0.44 0.0 0 0 5.70 38.02
  Q 12.72 36.49 19.38 32.22
  A 0.27 0.26 53.1 0 1 19.72 32.27
  L 24.32 37.31
  A 0.30 0.29 -39.4 0 1 24.27 37.75
  Q 15.79 44.05 5.54 45.45
  A 0.44 0.43 -4.7 0 0 5.17 45.88
  L 5.17 64.30
  A 0.55 0.55 0.0 0 0 5.76 64.85
  Q 10.97 64.46 16.83 62.58
  Q 38.86 55.52 52.22 36.29
  A 0.26 0.25 31.4 0 1 52.56 36.21
  L 58.60 39.70
  A 0.24 0.23 32.7 0 1 58.68 40.03
  Q 39.34 67.94 5.38 72.59
  A 0.25 0.25 0.0 0 0 5.16 72.84
  L 5.16 77.45
  A 0.29 0.28 0.0 0 0 5.45 77.73
  L 46.54 77.73
  A 2.64 2.61 -60.7 0 0 47.93 77.33
  Q 57.78 71.15 65.51 62.61
  A 0.77 0.76 41.7 0 1 66.57 62.55
  L 71.06 66.40
  A 0.86 0.86 0.0 0 1 71.08 67.69
  L 60.53 77.31
  A 0.24 0.24 0.0 0 0 60.69 77.73
  Z"
/>
<rect fill="#364f70" x="-5.93" y="-5.93" transform="translate(273.81,6.16) rotate(0.1)" width="11.86" height="11.86" rx="0.68"/>
<path fill="#ffffff" d="
  M 60.69 77.73
  A 0.24 0.24 0.0 0 1 60.53 77.31
  L 71.08 67.69
  A 0.86 0.86 0.0 0 0 71.06 66.40
  L 66.57 62.55
  A 0.77 0.76 41.7 0 0 65.51 62.61
  Q 57.78 71.15 47.93 77.33
  A 2.64 2.61 -60.7 0 1 46.54 77.73
  L 5.45 77.73
  A 0.29 0.28 -0.0 0 1 5.16 77.45
  L 5.16 72.84
  A 0.25 0.25 0.0 0 1 5.38 72.59
  Q 39.34 67.94 58.68 40.03
  A 0.24 0.23 32.7 0 0 58.60 39.70
  L 52.56 36.21
  A 0.26 0.25 31.4 0 0 52.22 36.29
  Q 38.86 55.52 16.83 62.58
  Q 10.97 64.46 5.76 64.85
  A 0.55 0.55 0.0 0 1 5.17 64.30
  L 5.17 45.88
  A 0.44 0.43 -4.7 0 1 5.54 45.45
  Q 15.79 44.05 24.27 37.75
  A 0.30 0.29 -39.4 0 0 24.32 37.31
  L 19.72 32.27
  A 0.27 0.26 53.1 0 0 19.38 32.22
  Q 12.72 36.49 5.70 38.02
  A 0.44 0.44 0.0 0 1 5.17 37.59
  L 5.17 8.09
  A 0.41 0.41 0.0 0 1 5.58 7.68
  L 35.24 7.68
  A 0.49 0.48 -86.8 0 1 35.72 8.22
  L 35.60 9.25
  A 0.54 0.54 0.0 0 0 35.95 9.82
  L 42.20 12.01
  A 0.62 0.62 0.0 0 0 43.02 11.50
  L 43.42 8.04
  A 0.92 0.91 3.2 0 1 44.33 7.23
  L 62.67 7.23
  A 0.49 0.49 0.0 0 1 63.16 7.78
  Q 61.73 18.75 56.99 28.32
  A 0.61 0.60 28.6 0 0 57.23 29.12
  L 62.51 32.16
  A 0.64 0.64 0.0 0 0 63.39 31.92
  C 67.50 24.50 69.90 15.67 70.80 7.25
  A 0.38 0.37 2.5 0 1 71.18 6.91
  L 89.35 6.91
  A 0.68 0.68 0.0 0 1 90.03 7.65
  Q 87.60 34.08 71.39 55.04
  A 0.32 0.32 0.0 0 0 71.43 55.48
  L 76.58 59.90
  A 0.23 0.22 38.9 0 0 76.90 59.87
  Q 94.89 36.39 97.37 7.33
  A 0.42 0.41 2.2 0 1 97.79 6.95
  L 116.22 6.95
  A 0.64 0.63 -86.8 0 1 116.85 7.66
  L 115.93 15.54
  A 0.73 0.73 0.0 0 0 116.58 16.35
  L 122.69 17.06
  A 0.46 0.45 -82.5 0 0 123.20 16.66
  L 124.32 7.01
  A 0.56 0.55 -86.5 0 1 124.87 6.52
  L 128.63 6.52
  A 0.51 0.51 0.0 0 1 129.14 7.03
  L 129.14 77.00
  A 0.33 0.32 0.0 0 1 128.81 77.32
  L 97.48 77.32
  A 0.28 0.28 0.0 0 1 97.25 76.87
  Q 114.83 54.17 121.05 25.81
  A 0.29 0.29 0.0 0 0 120.80 25.46
  L 114.14 24.69
  A 0.26 0.25 -80.1 0 0 113.86 24.89
  Q 107.36 54.13 87.56 77.35
  A 1.07 1.05 -69.6 0 1 86.75 77.73
  L 60.69 77.73
  Z
  M 29.38 22.23
  Q 27.69 24.63 25.74 26.98
  A 0.72 0.72 0.0 0 0 25.76 27.93
  L 30.07 32.65
  A 0.25 0.24 -43.3 0 0 30.43 32.66
  Q 33.24 29.81 35.53 26.57
  Q 37.81 23.33 39.55 19.73
  A 0.25 0.24 -66.3 0 0 39.42 19.39
  L 33.53 16.91
  A 0.72 0.72 0.0 0 0 32.63 17.21
  Q 31.07 19.83 29.38 22.23
  Z"
/>
<path fill="#364f70" d="
  M 35.53 26.57
  Q 33.24 29.81 30.43 32.66
  A 0.25 0.24 -43.3 0 1 30.07 32.65
  L 25.76 27.93
  A 0.72 0.72 0.0 0 1 25.74 26.98
  Q 27.69 24.63 29.38 22.23
  Q 31.07 19.83 32.63 17.21
  A 0.72 0.72 0.0 0 1 33.53 16.91
  L 39.42 19.39
  A 0.25 0.24 -66.3 0 1 39.55 19.73
  Q 37.81 23.33 35.53 26.57
  Z"
/>
<path fill="#364f70" d="
  M 297.99 85.00
  L 297.35 85.00
  L 283.59 85.00
  Q 283.23 85.01 282.88 85.00
  L 277.16 72.13
  A 0.87 0.87 0.0 0 0 276.37 71.62
  L 250.82 71.62
  A 0.74 0.71 9.5 0 0 250.13 72.09
  L 245.63 84.32
  A 0.76 0.75 -80.1 0 1 244.92 84.82
  L 231.67 84.82
  A 0.45 0.44 -79.8 0 1 231.26 84.22
  L 255.42 18.57
  A 0.60 0.59 9.7 0 1 255.98 18.18
  L 273.05 18.18
  A 0.88 0.88 0.0 0 1 273.88 18.76
  L 297.89 83.96
  A 1.69 1.69 0.0 0 1 298.00 84.56
  L 297.99 85.00
  Z
  M 254.50 59.95
  A 0.34 0.34 0.0 0 0 254.82 60.40
  L 272.37 60.52
  A 0.34 0.34 0.0 0 0 272.70 60.07
  L 264.10 34.77
  A 0.34 0.34 0.0 0 0 263.46 34.77
  L 254.50 59.95
  Z"
/>
<path fill="#364f70" d="
  M 306.30 85.00
  L 305.50 85.00
  L 305.49 18.74
  A 0.55 0.54 -0.0 0 1 306.04 18.20
  L 329.48 18.20
  A 0.84 0.82 -9.2 0 1 330.27 18.75
  L 345.50 61.84
  A 0.45 0.45 0.0 0 0 346.35 61.84
  L 361.54 18.62
  A 0.64 0.63 9.7 0 1 362.14 18.20
  L 385.76 18.20
  A 0.59 0.58 -0.0 0 1 386.35 18.78
  L 386.35 84.24
  A 0.59 0.58 0.0 0 1 385.76 84.82
  L 370.65 84.82
  A 0.38 0.37 0.7 0 1 370.27 84.44
  Q 370.31 40.37 370.29 36.50
  Q 370.29 36.28 370.15 35.97
  A 0.24 0.24 0.0 0 0 369.71 35.99
  L 352.78 84.14
  A 1.02 1.02 0.0 0 1 351.82 84.82
  L 337.35 84.82
  A 0.68 0.67 80.1 0 1 336.72 84.37
  L 319.58 35.87
  A 0.22 0.22 0.0 0 0 319.16 35.94
  L 319.16 84.17
  A 0.52 0.51 89.4 0 1 318.66 84.69
  L 306.30 85.00
  Z"
/>
<path fill="#364f70" d="
  M 480.52 85.00
  L 479.81 85.00
  L 465.53 84.87
  A 0.72 0.72 0.0 0 1 464.82 84.15
  L 464.82 36.51
  A 0.34 0.34 0.0 0 0 464.16 36.39
  L 447.31 84.31
  A 0.73 0.73 0.0 0 1 446.62 84.80
  L 432.50 85.00
  Q 432.06 84.98 431.63 85.00
  Q 422.86 60.79 414.33 36.14
  A 0.55 0.54 59.4 0 0 413.45 35.91
  C 413.08 36.25 413.29 61.43 413.31 84.35
  A 0.53 0.52 -0.6 0 1 412.79 84.87
  L 399.99 85.00
  Q 399.86 84.98 399.72 85.00
  L 399.73 18.76
  A 0.57 0.56 -90.0 0 1 400.29 18.19
  L 423.63 18.19
  A 0.90 0.89 80.3 0 1 424.47 18.79
  L 439.70 61.88
  A 0.41 0.41 0.0 0 0 440.48 61.88
  L 455.67 18.68
  A 0.73 0.73 0.0 0 1 456.36 18.19
  L 479.90 18.19
  A 0.66 0.66 0.0 0 1 480.56 18.85
  L 480.52 85.00
  Z"
/>
<path fill="#364f70" d="
  M 224.45 85.00
  L 223.83 85.00
  L 180.41 84.81
  A 0.52 0.52 0.0 0 1 179.89 84.29
  L 179.89 18.62
  A 0.41 0.41 0.0 0 1 180.30 18.21
  L 194.54 18.21
  A 0.67 0.66 -90.0 0 1 195.20 18.88
  L 195.20 71.94
  A 0.68 0.68 0.0 0 0 195.88 72.62
  L 223.97 72.62
  A 0.57 0.56 90.0 0 1 224.53 73.19
  L 224.45 85.00
  Z"
/>
<path fill="#364f70" d="
  M 494.70 18.20
  L 508.97 18.20
  A 0.51 0.51 0.0 0 1 509.48 18.71
  L 509.48 72.10
  A 0.51 0.51 0.0 0 0 509.99 72.61
  L 538.44 72.61
  A 0.51 0.51 0.0 0 1 538.95 73.12
  L 538.95 84.30
  A 0.51 0.51 0.0 0 1 538.44 84.81
  L 494.70 84.81
  A 0.51 0.51 0.0 0 1 494.19 84.30
  L 494.19 18.71
  A 0.51 0.51 0.0 0 1 494.70 18.20
  Z"
/>
<path fill="#364f70" d="
  M 590.00 18.29
  L 590.00 30.02
  L 561.95 30.06
  A 0.55 0.54 90.0 0 0 561.41 30.61
  L 561.41 43.94
  A 0.60 0.59 90.0 0 0 562.00 44.54
  L 590.00 44.51
  L 590.00 56.31
  L 562.03 56.32
  A 0.60 0.59 0.0 0 0 561.43 56.91
  L 561.43 72.31
  A 0.59 0.59 0.0 0 0 562.02 72.90
  L 590.00 72.87
  L 590.00 84.81
  L 547.60 84.83
  A 0.12 0.12 0.0 0 0 547.49 84.91
  Q 547.48 84.96 547.46 85.00
  L 546.61 85.00
  L 546.57 18.51
  A 0.33 0.33 0.0 0 1 546.90 18.18
  L 590.00 18.29
  Z"
/>
<path fill="#ffffff" d="
  M 590.00 30.02
  L 590.00 44.51
  L 562.00 44.54
  A 0.60 0.59 -90.0 0 1 561.41 43.94
  L 561.41 30.61
  A 0.55 0.54 90.0 0 1 561.95 30.06
  L 590.00 30.02
  Z"
/>
<path fill="#ffffff" d="
  M 254.50 59.95
  L 263.46 34.77
  A 0.34 0.34 0.0 0 1 264.10 34.77
  L 272.70 60.07
  A 0.34 0.34 0.0 0 1 272.37 60.52
  L 254.82 60.40
  A 0.34 0.34 0.0 0 1 254.50 59.95
  Z"
/>
<path fill="#ffffff" d="
  M 431.63 85.00
  L 399.99 85.00
  L 412.79 84.87
  A 0.53 0.52 -0.6 0 0 413.31 84.35
  C 413.29 61.43 413.08 36.25 413.45 35.91
  A 0.55 0.54 59.4 0 1 414.33 36.14
  Q 422.86 60.79 431.63 85.00
  Z"
/>
<path fill="#ffffff" d="
  M 479.81 85.00
  L 432.50 85.00
  L 446.62 84.80
  A 0.73 0.73 0.0 0 0 447.31 84.31
  L 464.16 36.39
  A 0.34 0.34 0.0 0 1 464.82 36.51
  L 464.82 84.15
  A 0.72 0.72 0.0 0 0 465.53 84.87
  L 479.81 85.00
  Z"
/>
<path fill="#ffffff" d="
  M 590.00 56.31
  L 590.00 72.87
  L 562.02 72.90
  A 0.59 0.59 0.0 0 1 561.43 72.31
  L 561.43 56.91
  A 0.60 0.59 0.0 0 1 562.03 56.32
  L 590.00 56.31
  Z"
/>
<path fill="#ffffff" d="
  M 297.35 85.00
  L 283.59 85.00
  L 297.35 85.00
  Z"
/>
<path fill="#ffffff" d="
  M 590.00 84.81
  Q 590.00 84.91 590.00 85.00
  L 547.46 85.00
  Q 547.48 84.96 547.49 84.91
  A 0.12 0.12 0.0 0 1 547.60 84.83
  L 590.00 84.81
  Z"
/>
</svg>
