<?xml version="1.0" encoding="UTF-8" standalone="no"?>
<!DOCTYPE svg PUBLIC "-//W3C//DTD SVG 1.1//EN" "http://www.w3.org/Graphics/SVG/1.1/DTD/svg11.dtd">
<svg xmlns="http://www.w3.org/2000/svg" version="1.1" viewBox="0.00 0.00 300.00 100.00">
<path fill="#ff6835" d="
  M 61.84 38.50
  C 65.39 40.40 64.13 43.85 64.33 46.58
  A 1.10 1.09 88.0 0 1 63.24 47.75
  L 56.39 47.75
  A 0.84 0.83 -0.0 0 1 55.55 46.92
  L 55.55 42.93
  A 1.33 1.32 90.0 0 0 54.23 41.60
  L 42.98 41.60
  A 0.57 0.56 90.0 0 0 42.42 42.17
  L 42.42 46.63
  A 1.13 1.13 0.0 0 1 41.29 47.76
  L 35.11 47.76
  A 1.32 1.32 0.0 0 1 33.79 46.44
  L 33.79 34.77
  A 0.67 0.66 90.0 0 1 34.45 34.10
  L 54.18 34.10
  A 1.33 1.32 0.0 0 0 55.51 32.78
  L 55.51 32.32
  A 1.16 1.16 0.0 0 0 54.35 31.16
  L 34.22 31.16
  A 0.42 0.42 0.0 0 1 33.80 30.74
  L 33.80 23.76
  A 0.41 0.41 0.0 0 1 34.21 23.35
  Q 56.11 23.33 57.74 23.32
  Q 62.82 23.32 64.17 28.02
  Q 65.94 34.21 61.76 37.79
  A 0.43 0.43 0.0 0 0 61.84 38.50
  Z"
/>
<path fill="#ff6835" d="
  M 78.64 31.19
  A 0.64 0.64 0.0 0 1 78.00 30.55
  L 77.98 23.95
  A 0.61 0.61 0.0 0 1 78.60 23.34
  Q 94.52 23.37 97.58 23.30
  C 106.73 23.08 107.70 27.03 107.26 34.95
  C 107.07 38.49 104.50 41.36 101.20 41.54
  Q 98.72 41.67 87.44 41.59
  A 0.66 0.66 0.0 0 0 86.78 42.25
  L 86.79 46.65
  A 1.10 1.10 0.0 0 1 85.69 47.75
  L 79.17 47.76
  A 1.16 1.16 0.0 0 1 78.01 46.60
  L 77.99 34.68
  A 0.57 0.56 89.9 0 1 78.55 34.11
  L 97.11 34.12
  A 1.44 1.44 0.0 0 0 98.55 32.67
  L 98.55 32.60
  A 1.47 1.47 0.0 0 0 97.08 31.15
  L 78.64 31.19
  Z"
/>
<path fill="#ff6835" d="
  M 140.98 39.88
  A 7.85 7.85 0.0 0 1 133.13 47.73
  L 115.89 47.73
  A 7.85 7.85 0.0 0 1 108.04 39.88
  L 108.04 31.20
  A 7.85 7.85 0.0 0 1 115.89 23.35
  L 133.13 23.35
  A 7.85 7.85 0.0 0 1 140.98 31.20
  L 140.98 39.88
  Z
  M 123.56 31.23
  A 3.40 3.40 0.0 0 0 120.16 27.83
  A 3.40 3.40 0.0 0 0 116.76 31.23
  A 3.40 3.40 0.0 0 0 120.16 34.63
  A 3.40 3.40 0.0 0 0 123.56 31.23
  Z
  M 132.26 31.22
  A 3.41 3.41 0.0 0 0 128.85 27.81
  A 3.41 3.41 0.0 0 0 125.44 31.22
  A 3.41 3.41 0.0 0 0 128.85 34.63
  A 3.41 3.41 0.0 0 0 132.26 31.22
  Z"
/>
<path fill="#ff6835" d="
  M 142.85 31.17
  A 0.64 0.64 0.0 0 1 142.21 30.53
  L 142.20 23.94
  A 0.61 0.61 0.0 0 1 142.82 23.33
  Q 158.71 23.37 161.77 23.31
  C 170.91 23.10 171.88 27.05 171.44 34.96
  C 171.24 38.48 168.67 41.36 165.38 41.53
  Q 162.90 41.65 151.63 41.57
  A 0.66 0.66 0.0 0 0 150.97 42.23
  L 150.97 46.62
  A 1.10 1.10 0.0 0 1 149.88 47.72
  L 143.37 47.73
  A 1.16 1.16 0.0 0 1 142.21 46.57
  L 142.19 34.66
  A 0.57 0.56 89.9 0 1 142.75 34.09
  L 161.30 34.12
  A 1.44 1.44 0.0 0 0 162.74 32.67
  L 162.74 32.60
  A 1.47 1.47 0.0 0 0 161.26 31.15
  L 142.85 31.17
  Z"
/>
<path fill="#ff6835" d="
  M 172.95 31.16
  A 0.64 0.64 0.0 0 1 172.31 30.52
  L 172.31 23.93
  A 0.61 0.61 0.0 0 1 172.93 23.32
  Q 188.83 23.38 191.89 23.32
  C 201.03 23.12 201.99 27.07 201.54 34.98
  C 201.34 38.51 198.77 41.38 195.47 41.55
  Q 192.99 41.67 181.72 41.57
  A 0.66 0.66 0.0 0 0 181.06 42.23
  L 181.06 46.62
  A 1.10 1.10 0.0 0 1 179.96 47.72
  L 173.45 47.72
  A 1.16 1.16 0.0 0 1 172.29 46.56
  L 172.29 34.65
  A 0.57 0.56 90.0 0 1 172.85 34.08
  L 191.40 34.13
  A 1.44 1.44 0.0 0 0 192.84 32.68
  L 192.84 32.61
  A 1.47 1.47 0.0 0 0 191.37 31.16
  L 172.95 31.16
  Z"
/>
<path fill="#ff6835" d="
  M 210.66 35.57
  Q 210.65 39.02 210.73 39.59
  A 0.67 0.66 -3.9 0 0 211.39 40.16
  L 228.24 40.16
  A 0.59 0.59 0.0 0 1 228.83 40.75
  L 228.83 47.17
  A 0.60 0.60 0.0 0 1 228.23 47.77
  L 202.48 47.77
  A 0.49 0.48 -89.5 0 1 202.00 47.28
  Q 202.17 40.66 202.18 35.55
  Q 202.19 30.45 202.05 23.83
  A 0.49 0.48 89.8 0 1 202.54 23.34
  L 228.29 23.46
  A 0.60 0.60 0.0 0 1 228.89 24.06
  L 228.85 30.48
  A 0.59 0.59 0.0 0 1 228.26 31.07
  L 211.41 30.99
  A 0.67 0.66 4.2 0 0 210.75 31.56
  Q 210.67 32.13 210.66 35.57
  Z"
/>
<rect fill="#ff6835" x="231.01" y="23.34" width="8.66" height="15.30" rx="0.43"/>
<rect fill="#ff6835" x="212.31" y="32.70" width="16.52" height="5.94" rx="0.47"/>
<rect fill="#ff6835" x="-3.82" y="-3.82" transform="translate(70.37,43.98) rotate(-0.1)" width="7.64" height="7.64" rx="0.45"/>
<rect fill="#ff6835" x="231.00" y="40.24" width="37.68" height="7.48" rx="0.39"/>
<path fill="#fefefe" d="
  M 80.7923 83.4016
  A 7.34 7.34 0.0 0 1 73.4140 90.7030
  L 72.1740 90.6965
  A 7.34 7.34 0.0 0 1 64.8726 83.3182
  L 64.9677 65.1584
  A 7.34 7.34 0.0 0 1 72.3460 57.8570
  L 73.5860 57.8635
  A 7.34 7.34 0.0 0 1 80.8874 65.2418
  L 80.7923 83.4016
  Z
  M 74.35 65.30
  A 1.47 1.47 0.0 0 0 72.88 63.83
  L 72.82 63.83
  A 1.47 1.47 0.0 0 0 71.35 65.30
  L 71.35 83.36
  A 1.47 1.47 0.0 0 0 72.82 84.83
  L 72.88 84.83
  A 1.47 1.47 0.0 0 0 74.35 83.36
  L 74.35 65.30
  Z"
/>
<path fill="#fefefe" d="
  M 44.21 75.21
  L 42.93 90.41
  A 0.09 0.09 0.0 0 1 42.84 90.49
  L 35.03 90.49
  A 0.09 0.09 0.0 0 1 34.94 90.41
  L 31.51 58.25
  A 0.09 0.09 0.0 0 1 31.60 58.15
  L 37.74 58.22
  A 0.09 0.09 0.0 0 1 37.83 58.30
  L 39.41 76.42
  A 0.09 0.09 0.0 0 0 39.49 76.50
  L 39.73 76.52
  A 0.09 0.09 0.0 0 0 39.83 76.44
  L 41.41 58.25
  A 0.09 0.09 0.0 0 1 41.50 58.17
  L 47.37 58.20
  A 0.09 0.09 0.0 0 1 47.46 58.28
  L 48.99 77.25
  A 0.09 0.09 0.0 0 0 49.08 77.34
  L 49.23 77.35
  A 0.09 0.09 0.0 0 0 49.33 77.27
  L 50.88 58.31
  A 0.09 0.09 0.0 0 1 50.97 58.23
  L 57.19 58.19
  A 0.09 0.09 0.0 0 1 57.28 58.29
  L 53.76 90.42
  A 0.09 0.09 0.0 0 1 53.67 90.50
  L 46.08 90.49
  A 0.09 0.09 0.0 0 1 45.99 90.41
  L 44.39 75.20
  A 0.09 0.09 0.0 0 0 44.21 75.21
  Z"
/>
<path fill="#fefefe" d="
  M 103.07 74.01
  Q 104.90 75.20 104.91 77.64
  Q 104.93 83.93 104.89 90.03
  A 0.49 0.49 0.0 0 1 104.40 90.51
  L 98.99 90.51
  A 0.44 0.44 0.0 0 1 98.55 90.07
  L 98.55 77.30
  A 1.53 1.52 -83.3 0 0 97.38 75.81
  L 97.06 75.73
  A 0.77 0.77 0.0 0 0 96.11 76.48
  L 96.11 90.09
  A 0.42 0.42 0.0 0 1 95.69 90.51
  L 89.95 90.51
  A 0.39 0.39 0.0 0 1 89.56 90.12
  L 89.56 58.82
  A 0.63 0.63 0.0 0 1 90.18 58.19
  Q 97.21 58.13 100.68 58.32
  C 105.69 58.60 105.58 65.81 105.23 69.19
  Q 104.94 71.95 103.06 73.25
  A 0.46 0.45 -45.9 0 0 103.07 74.01
  Z
  M 96.18 64.60
  L 96.12 69.66
  A 0.53 0.53 0.0 0 0 96.64 70.20
  L 97.29 70.21
  A 1.87 1.68 -89.3 0 0 99.00 68.36
  L 99.02 65.98
  A 1.87 1.68 -89.3 0 0 97.37 64.09
  L 96.72 64.08
  A 0.53 0.53 0.0 0 0 96.18 64.60
  Z"
/>
<path fill="#fefefe" d="
  M 119.94 76.09
  L 119.94 90.07
  A 0.43 0.43 0.0 0 1 119.51 90.50
  L 114.01 90.50
  A 0.45 0.45 0.0 0 1 113.56 90.05
  L 113.56 58.54
  A 0.36 0.35 0.0 0 1 113.92 58.19
  L 119.54 58.19
  A 0.38 0.38 0.0 0 1 119.92 58.57
  L 119.92 69.77
  A 0.14 0.14 0.0 0 0 120.20 69.80
  L 122.93 58.61
  A 0.55 0.54 6.7 0 1 123.46 58.20
  L 128.97 58.20
  A 0.38 0.37 6.6 0 1 129.34 58.66
  L 125.93 72.63
  A 1.41 1.39 44.6 0 0 125.94 73.31
  L 130.12 90.05
  A 0.37 0.36 -6.8 0 1 129.76 90.50
  L 124.10 90.50
  A 0.50 0.48 -6.7 0 1 123.62 90.13
  L 120.11 76.06
  A 0.09 0.08 -53.6 0 0 119.94 76.09
  Z"
/>
<path fill="#fefefe" d="
  M 149.40 76.13
  A 0.18 0.18 0.0 0 0 149.04 76.13
  L 147.85 89.85
  A 0.71 0.70 2.2 0 1 147.14 90.50
  L 140.20 90.50
  A 0.42 0.42 0.0 0 1 139.78 90.12
  L 136.42 58.77
  A 0.56 0.55 87.7 0 1 136.98 58.16
  L 142.03 58.20
  A 0.74 0.73 87.4 0 1 142.76 58.87
  L 144.27 76.32
  A 0.22 0.22 0.0 0 0 144.48 76.52
  L 144.49 76.52
  A 0.26 0.26 0.0 0 0 144.72 76.29
  L 146.22 58.83
  A 0.72 0.72 0.0 0 1 146.95 58.17
  L 151.64 58.18
  A 0.74 0.73 -2.1 0 1 152.38 58.86
  L 153.85 77.22
  A 0.15 0.15 0.0 0 0 153.97 77.35
  L 153.98 77.35
  A 0.20 0.20 0.0 0 0 154.20 77.17
  L 155.74 58.56
  A 0.39 0.38 2.4 0 1 156.13 58.21
  L 161.79 58.20
  A 0.33 0.33 0.0 0 1 162.12 58.57
  L 158.69 89.94
  A 0.64 0.64 0.0 0 1 158.05 90.51
  L 151.52 90.50
  A 0.73 0.73 0.0 0 1 150.79 89.84
  L 149.40 76.13
  Z"
/>
<path fill="#fefefe" d="
  M 170.68 58.20
  L 182.65 58.20
  A 0.49 0.49 0.0 0 1 183.14 58.69
  L 183.14 63.93
  A 0.49 0.49 0.0 0 1 182.65 64.42
  L 177.21 64.42
  A 0.49 0.49 0.0 0 0 176.72 64.91
  L 176.72 70.20
  A 0.49 0.49 0.0 0 0 177.21 70.69
  L 182.36 70.69
  A 0.49 0.49 0.0 0 1 182.85 71.18
  L 182.85 76.29
  A 0.49 0.49 0.0 0 1 182.36 76.78
  L 177.21 76.78
  A 0.49 0.49 0.0 0 0 176.72 77.27
  L 176.72 83.75
  A 0.49 0.49 0.0 0 0 177.21 84.24
  L 183.04 84.24
  A 0.49 0.49 0.0 0 1 183.53 84.73
  L 183.53 90.01
  A 0.49 0.49 0.0 0 1 183.04 90.50
  L 170.68 90.50
  A 0.49 0.49 0.0 0 1 170.19 90.01
  L 170.19 58.69
  A 0.49 0.49 0.0 0 1 170.68 58.20
  Z"
/>
<path fill="#fefefe" d="
  M 199.40 58.20
  Q 203.34 58.20 204.24 58.28
  A 0.60 0.60 0.0 0 1 204.78 58.82
  L 208.06 89.58
  A 0.83 0.83 0.0 0 1 207.24 90.50
  L 202.40 90.50
  A 0.63 0.62 86.9 0 1 201.78 89.94
  L 201.33 85.78
  A 0.60 0.59 85.5 0 0 200.71 85.25
  Q 199.53 85.30 199.41 85.30
  Q 199.28 85.30 198.10 85.25
  A 0.60 0.59 -85.5 0 0 197.49 85.78
  L 197.04 89.94
  A 0.63 0.62 -87.0 0 1 196.42 90.50
  L 191.58 90.50
  A 0.83 0.83 0.0 0 1 190.76 89.58
  L 194.02 58.82
  A 0.60 0.60 0.0 0 1 194.56 58.29
  Q 195.46 58.20 199.40 58.20
  Z
  M 198.69 80.19
  L 200.25 80.17
  A 0.24 0.24 0.0 0 0 200.48 79.92
  L 200.48 79.78
  A 15.82 0.88 89.1 0 0 199.35 63.98
  L 199.07 63.98
  A 15.82 0.88 89.1 0 0 198.44 79.82
  L 198.44 79.96
  A 0.24 0.24 0.0 0 0 198.69 80.19
  Z"
/>
<path fill="#fefefe" d="
  M 229.55 73.26
  A 0.46 0.45 -45.8 0 0 229.56 74.02
  Q 231.39 75.20 231.40 77.64
  Q 231.41 83.92 231.37 90.02
  A 0.49 0.49 0.0 0 1 230.88 90.49
  L 225.48 90.49
  A 0.44 0.44 0.0 0 1 225.04 90.05
  L 225.05 77.30
  A 1.53 1.52 -83.3 0 0 223.88 75.81
  L 223.56 75.73
  A 0.77 0.77 0.0 0 0 222.61 76.48
  L 222.60 90.07
  A 0.42 0.42 0.0 0 1 222.18 90.49
  L 216.45 90.49
  A 0.39 0.39 0.0 0 1 216.06 90.10
  L 216.08 58.84
  A 0.63 0.63 0.0 0 1 216.70 58.21
  Q 223.72 58.15 227.18 58.34
  C 232.19 58.63 232.07 65.83 231.72 69.20
  Q 231.43 71.96 229.55 73.26
  Z
  M 222.65 64.64
  L 222.61 69.66
  A 0.53 0.53 0.0 0 0 223.14 70.19
  L 223.92 70.20
  A 1.85 1.59 -89.6 0 0 225.52 68.36
  L 225.54 65.98
  A 1.85 1.59 -89.6 0 0 223.96 64.12
  L 223.18 64.11
  A 0.53 0.53 0.0 0 0 222.65 64.64
  Z"
/>
<path fill="#ff751f" d="
  M 265.17 76.64
  C 265.17 76.81 265.17 76.83 265.09 76.92
  Q 258.87 83.89 251.61 91.91
  A 1.35 1.30 -68.2 0 1 250.63 92.35
  L 239.66 92.35
  A 0.28 0.27 -68.9 0 1 239.46 91.89
  L 252.99 76.87
  A 0.25 0.06 88.3 0 0 253.03 76.70
  Q 253.03 76.67 253.03 76.62
  Q 253.03 76.56 253.03 76.54
  A 0.25 0.06 -88.1 0 0 252.99 76.37
  L 239.50 61.31
  A 0.28 0.27 69.0 0 1 239.70 60.85
  L 250.67 60.88
  A 1.35 1.30 68.4 0 1 251.65 61.32
  Q 258.89 69.36 265.09 76.35
  C 265.17 76.44 265.17 76.46 265.17 76.64
  Z"
/>
<path fill="#ff751f" d="
  M 273.29 76.62
  Q 273.29 76.57 273.29 76.54
  A 0.25 0.06 -88.1 0 0 273.25 76.38
  L 259.76 61.31
  A 0.28 0.27 69.0 0 1 259.96 60.85
  L 270.93 60.88
  A 1.35 1.31 68.4 0 1 271.91 61.32
  Q 279.15 69.37 285.36 76.35
  C 285.44 76.45 285.44 76.47 285.44 76.65
  C 285.44 76.82 285.44 76.84 285.36 76.93
  Q 279.14 83.90 271.87 91.93
  A 1.35 1.31 -68.2 0 1 270.89 92.37
  L 259.92 92.37
  A 0.28 0.27 -68.9 0 1 259.72 91.91
  L 273.25 76.88
  A 0.25 0.06 88.3 0 0 273.29 76.71
  Q 273.29 76.68 273.29 76.62
  Z"
/>
</svg>
